<svg xmlns="http://www.w3.org/2000/svg" viewBox="0 0 500 500"><g id="freepik--background-complete--inject-15"><path d="M65.86,307.7a5.13,5.13,0,1,0-10.15,1.52l22.5,137.27H88.47Z" style="fill:#ebebeb"></path><path d="M57.84,309.39l92.71-101.85.68,1.12,4.49,7.44L65.45,316.27a5.13,5.13,0,1,1-7.61-6.88Z" style="fill:#ebebeb"></path><path d="M64.65,312c.07,0,.16-.21.12-.64a2.39,2.39,0,0,0-.85-1.58,2.77,2.77,0,0,0-2.68-.5,2.87,2.87,0,0,0,0,5.45,2.75,2.75,0,0,0,2.68-.51,2.35,2.35,0,0,0,.85-1.57c0-.43,0-.65-.12-.65s-.16,1-1.18,1.64a2.08,2.08,0,0,1-1.9.19,2,2,0,0,1,0-3.65,2.08,2.08,0,0,1,1.9.19C64.49,311.07,64.49,312.06,64.65,312Z" style="fill:#e0e0e0"></path><path d="M63.24,303.46c-.11-.09-1.17.89-2.79,2.56a38,38,0,0,0-2.78,3.06,6.41,6.41,0,0,0-1.46,5.07,5.15,5.15,0,0,0,3.77,3.7,5.49,5.49,0,0,0,4.26-.59c2.08-1.31,2.81-2.64,2.74-2.69s-1.1,1-3.08,2a4.91,4.91,0,0,1-3.66.32,4.31,4.31,0,0,1-3-3,5.71,5.71,0,0,1,1.22-4.28c.86-1.21,1.83-2.23,2.55-3.14C62.48,304.72,63.34,303.56,63.24,303.46Z" style="fill:#e0e0e0"></path><path d="M129.17,458.6H44.76s10.78-13.43,38.88-13.43C109.81,445.17,125.4,452.86,129.17,458.6Z" style="fill:#e0e0e0"></path><polygon points="150.02 191.39 145.73 184.96 151.03 180.89 155.58 187.37 150.02 191.39" style="fill:#ebebeb"></polygon><path d="M142.75,195.28l18.48-13.4L179,203.21c30.76,5,43.16,24.31,43.16,24.31l-55.07,42.17c-18.85-20.84-9.92-50.6-9.92-50.6Z" style="fill:#f5f5f5"></path><path d="M157.13,219.09c.17.23,5.2-3.13,11.22-7.51s10.78-8.13,10.61-8.36-5.19,3.13-11.22,7.51S157,218.86,157.13,219.09Z" style="fill:#e0e0e0"></path><rect x="51.14" y="52.81" width="108.64" height="108.64" style="fill:#ebebeb"></rect><rect x="54.34" y="56.01" width="102.25" height="102.25" style="fill:#fff"></rect><rect x="90.78" y="92.45" width="29.36" height="29.36" style="fill:#e0e0e0"></rect><rect x="159.78" y="52.84" width="4.58" height="108.61" style="fill:#e0e0e0"></rect><rect x="340.14" y="195.69" width="108.64" height="108.64" style="fill:#ebebeb"></rect><rect x="343.33" y="198.89" width="102.25" height="102.25" style="fill:#fff"></rect><rect x="379.78" y="235.33" width="29.36" height="29.36" style="fill:#e0e0e0"></rect><rect x="448.78" y="195.72" width="4.58" height="108.61" style="fill:#e0e0e0"></rect><rect x="375.13" y="51.97" width="14.07" height="70" transform="translate(-0.46 2.05) rotate(-0.31)" style="fill:#e0e0e0"></rect><rect x="253.17" y="52.21" width="36.43" height="38.65" transform="translate(-0.38 1.45) rotate(-0.31)" style="fill:#ebebeb"></rect><rect x="289.43" y="52.02" width="36.43" height="38.65" transform="translate(-0.38 1.65) rotate(-0.31)" style="fill:#f5f5f5"></rect><path d="M253.12,63q36.31.3,72.69-.33a.39.39,0,0,0,0-.78c-24.21-.13-48.49,0-72.69.45a.33.33,0,0,0,0,.66Z" style="fill:#e0e0e0"></path><rect x="230.43" y="90.29" width="66.19" height="31.49" transform="translate(-0.56 1.41) rotate(-0.31)" style="fill:#ebebeb"></rect><rect x="296.31" y="89.94" width="66.19" height="31.49" transform="translate(-0.56 1.77) rotate(-0.31)" style="fill:#f5f5f5"></rect><path d="M230.4,99.23c44,.5,88.09,0,132.06-.65a.39.39,0,0,0,0-.78c-44-.23-88.1-.2-132.07.76a.34.34,0,0,0,0,.67Z" style="fill:#e0e0e0"></path><rect x="205.64" y="121.96" width="256.44" height="11.28" style="fill:#e0e0e0"></rect><rect x="247.63" y="127.39" width="10.41" height="38.5" style="fill:#e0e0e0"></rect><rect x="403.03" y="127.39" width="10.41" height="38.5" style="fill:#e0e0e0"></rect><rect x="388.93" y="25.86" width="14.07" height="96.28" transform="translate(-0.39 2.12) rotate(-0.31)" style="fill:#ebebeb"></rect><rect x="403.07" y="43.81" width="21.86" height="78.02" transform="translate(-0.44 2.22) rotate(-0.31)" style="fill:#f5f5f5"></rect><path d="M424.57,58.78c0,.21-4.89.38-10.93.38s-10.93-.17-10.93-.38,4.89-.38,10.93-.38S424.57,58.57,424.57,58.78Z" style="fill:#e0e0e0"></path><path d="M424.57,55.5c0,.21-4.89.38-10.93.38s-10.93-.17-10.93-.38,4.89-.38,10.93-.38S424.57,55.29,424.57,55.5Z" style="fill:#e0e0e0"></path><path d="M424.57,110c0,.21-4.89.38-10.93.38s-10.93-.17-10.93-.38,4.89-.38,10.93-.38S424.57,109.82,424.57,110Z" style="fill:#e0e0e0"></path><path d="M424.57,106.75c0,.21-4.89.38-10.93.38s-10.93-.17-10.93-.38,4.89-.37,10.93-.37S424.57,106.55,424.57,106.75Z" style="fill:#e0e0e0"></path><path d="M414,99.6c-.21,0-.37-7.87-.37-17.58s.16-17.58.37-17.58.38,7.87.38,17.58S414.2,99.6,414,99.6Z" style="fill:#e0e0e0"></path><rect x="424.81" y="62.91" width="23.79" height="58.89" style="fill:#ebebeb"></rect><path d="M399.54,42.27a4,4,0,1,1-4-4.05A4,4,0,0,1,399.54,42.27Z" style="fill:#e0e0e0"></path><rect x="394.25" y="53.39" width="2.5" height="57.27" style="fill:#e0e0e0"></rect></g><g id="freepik--Plant--inject-15"><polygon points="52.2 412.94 58.92 457.1 97.96 457.1 107.02 413.58 52.2 412.94" style="fill:#FF6400"></polygon><path d="M101.56,441.24c0,.13-10,.23-22.34.23s-22.34-.1-22.34-.23,10-.23,22.34-.23S101.56,441.11,101.56,441.24Z" style="fill:#fafafa"></path><path d="M101.71,439.07c0,.12-10.07.23-22.49.23s-22.49-.11-22.49-.23,10.07-.23,22.49-.23S101.71,438.94,101.71,439.07Z" style="fill:#fafafa"></path><path d="M101.64,436.62c0,.12-10.07.22-22.49.22s-22.5-.1-22.5-.22,10.07-.23,22.5-.23S101.64,436.49,101.64,436.62Z" style="fill:#fafafa"></path><path d="M63.41,454.58a35.13,35.13,0,0,1-1.2-5.56,36.09,36.09,0,0,1-.75-5.64,33.84,33.84,0,0,1,1.2,5.56A35.8,35.8,0,0,1,63.41,454.58Z" style="fill:#fafafa"></path><path d="M66.06,454.11a42.35,42.35,0,0,1-.48-5.43,46.27,46.27,0,0,1-.26-5.44,42.46,42.46,0,0,1,.74,10.87Z" style="fill:#fafafa"></path><path d="M70.9,454.11a27.55,27.55,0,0,1-1-5.57,27.21,27.21,0,0,1-.3-5.64,165.74,165.74,0,0,1,1.31,11.21Z" style="fill:#fafafa"></path><path d="M74.3,454.34a28,28,0,0,1-.54-5.65,28.52,28.52,0,0,1,.17-5.68,49.53,49.53,0,0,1,.29,5.66A47.88,47.88,0,0,1,74.3,454.34Z" style="fill:#fafafa"></path><path d="M80.31,454.11a32.68,32.68,0,0,1-.41-5.37,31.22,31.22,0,0,1,0-5.38,63,63,0,0,1,.36,10.75Z" style="fill:#fafafa"></path><path d="M84.71,454.34a65.53,65.53,0,0,1,.09-11.09,68.46,68.46,0,0,1-.09,11.09Z" style="fill:#fafafa"></path><path d="M88.83,453.75A72.88,72.88,0,0,1,90,442.2a39.2,39.2,0,0,1-.33,5.8A37.72,37.72,0,0,1,88.83,453.75Z" style="fill:#fafafa"></path><path d="M94.14,453.17a20,20,0,0,1,.65-4.93,19.59,19.59,0,0,1,1.46-4.76,45.5,45.5,0,0,1-1,4.86A42.86,42.86,0,0,1,94.14,453.17Z" style="fill:#fafafa"></path><path d="M47.73,404.2v8.26A3.24,3.24,0,0,0,51,415.71H107.5a3.25,3.25,0,0,0,3.26-3.25V404.2Z" style="fill:#FF6400"></path><g style="opacity:0.4"><polygon points="52.63 415.71 53.1 418.34 105.25 422.06 106.58 415.71 52.63 415.71"></polygon></g><path d="M56.24,404.24S34.26,378.91,36.7,378s22,13.12,22,13.12-16.79-37.54-13.43-40.29,21.06,33.27,21.06,33.27-2.75-52.49,0-53.1,12.82,52.49,12.82,52.49S94.09,335,98.36,335s-4.58,46.7-4.58,46.7,17.7-29.91,20.45-25.94S101.72,392,101.72,392s22.28-18.62,23.19-16.18-24.11,28.39-24.11,28.39Z" style="fill:#455a64"></path><path d="M53.17,366.09c.15-.07,4,8.28,8.71,18.66s8.31,18.84,8.15,18.91-4-8.29-8.7-18.66S53,366.15,53.17,366.09Z" style="fill:#263238"></path><path d="M70.93,370.75c.16,0,.81,7.36,1.44,16.45s1,16.49.85,16.5-.82-7.35-1.45-16.45S70.76,370.77,70.93,370.75Z" style="fill:#263238"></path><path d="M95.41,347.24a2.07,2.07,0,0,1-.13.6c-.12.45-.28,1-.48,1.67-.46,1.53-1.08,3.6-1.84,6.11-1.55,5.17-3.63,12.32-5.75,20.26s-3.88,15.19-5.11,20.44c-.59,2.56-1.09,4.66-1.45,6.22-.16.68-.3,1.23-.41,1.69a2.29,2.29,0,0,1-.19.58,2.71,2.71,0,0,1,.07-.61l.3-1.71c.27-1.48.71-3.62,1.27-6.26,1.12-5.28,2.81-12.54,4.94-20.5s4.27-15.1,5.93-20.23c.82-2.57,1.52-4.64,2-6.07.24-.65.43-1.19.59-1.63A2.71,2.71,0,0,1,95.41,347.24Z" style="fill:#263238"></path><path d="M106,374.3c.14.1-4.15,6.5-9.58,14.29s-9.94,14-10.07,13.94,4.15-6.49,9.58-14.29S105.87,374.21,106,374.3Z" style="fill:#263238"></path><path d="M63.65,403.7a8.62,8.62,0,0,1-1.92-1.37,51.57,51.57,0,0,1-4.18-3.86,53.48,53.48,0,0,1-3.75-4.28,8.4,8.4,0,0,1-1.33-2c.14-.11,2.43,2.66,5.51,5.82S63.77,403.56,63.65,403.7Z" style="fill:#263238"></path><path d="M77,393.64c.17,0,.52,2.32.78,5.22s.35,5.27.18,5.28-.51-2.32-.78-5.22A24.12,24.12,0,0,1,77,393.64Z" style="fill:#263238"></path></g><g id="freepik--Character--inject-15"><path d="M362.53,282.85a25.65,25.65,0,0,0,14.17-42.63,6.65,6.65,0,0,0-3.38-2.26c-2.85-.58-5.23,2.07-6.92,4.44l-12.24,17.08" style="fill:#263238"></path><path d="M358.81,264.42c10.19-7.25,16.71-21.29,17.83-33.74s-6.91-35.83-12.24-47.14c-6.49-13.77-9.17,5.91-13.82,8.32-2.77,1.43-4.33,4.56-4.68,7.66s.3,6.21,1,9.26q6,27.81,12,55.64" style="fill:#263238"></path><path d="M309.28,151.53c-20.39-6.67-34.26,1.9-40.51,8.88s-9.07,16.4-10.16,25.7-.61,18.7-1.17,28a112.16,112.16,0,0,0-.06,16.19c.3,7.86,3.1,21.48,8.22,27.46,4.92,5.74,10,10.73,17,13.7,2.5,1.07,5.43,2.13,7.83.86,1.75-.91,2.71-2.82,3.54-4.61a364.57,364.57,0,0,0,30.22-102.44" style="fill:#263238"></path><path d="M333.84,169.32l-34.55-7.22L291,164.55c-19,3.36-28.44,26.59-25.89,42,2.83,17.12,7,37.9,11.87,50,9.87,24.38,30,23.12,30,23.12s1,7,2.32,15.49a27.25,27.25,0,0,0,32.27,22.56h0a27.25,27.25,0,0,0,21.5-31.41L343.89,176.51A9.15,9.15,0,0,0,333.84,169.32Z" style="fill:#ffbe9d"></path><path d="M277.56,223.41a3.33,3.33,0,0,0,3.89,2.55,3.18,3.18,0,0,0,2.67-3.7,3.34,3.34,0,0,0-3.88-2.55A3.19,3.19,0,0,0,277.56,223.41Z" style="fill:#263238"></path><path d="M273.42,214.06c.5.33,2.54-2.06,6-2.85s6.46.35,6.74-.16c.15-.23-.44-.9-1.75-1.46a9.18,9.18,0,0,0-5.51-.4,8.83,8.83,0,0,0-4.68,2.8C273.37,213.07,273.18,213.92,273.42,214.06Z" style="fill:#263238"></path><path d="M299.88,237.8c0-.2-2.29-.08-5.91.29-.92.11-1.8.13-2.09-.45a4.66,4.66,0,0,1,0-2.78c.34-2.35.7-4.81,1.07-7.4,1.43-10.51,2.25-19.08,1.82-19.13s-1.93,8.43-3.36,18.94q-.5,3.89-.94,7.42c-.11,1.09-.42,2.37.34,3.6a2.31,2.31,0,0,0,1.77,1,6.06,6.06,0,0,0,1.56-.14C297.71,238.49,299.91,238,299.88,237.8Z" style="fill:#263238"></path><path d="M307,279.69a66,66,0,0,0,31.81-16.87s-5,19.63-30.86,23.11Z" style="fill:#eb996e"></path><path d="M303.49,245a6.53,6.53,0,0,1,5.14-4,5.17,5.17,0,0,1,4.5,1.24,4.53,4.53,0,0,1,1.1,4.73,4.64,4.64,0,0,1-4.47,2.75,11.66,11.66,0,0,1-5.11-1.71,3.5,3.5,0,0,1-1.23-.89A2.77,2.77,0,0,1,303.49,245Z" style="fill:#eb996e"></path><path d="M310.71,237.84c-.57.1.3,3.89-2.33,7.33s-6.75,4-6.66,4.5c0,.25,1.07.52,2.79.18a9.71,9.71,0,0,0,5.61-3.54,8.42,8.42,0,0,0,1.71-6.09C311.61,238.6,311,237.76,310.71,237.84Z" style="fill:#263238"></path><path d="M272.17,204.12c.79.65,3-.73,5.89-1.44s5.47-.7,5.84-1.66c.16-.46-.41-1.16-1.66-1.67a8.77,8.77,0,0,0-9.45,2.5C272,202.9,271.81,203.79,272.17,204.12Z" style="fill:#263238"></path><path d="M315.28,216.27a3.33,3.33,0,0,1-2.52,3.9,3.18,3.18,0,0,1-3.94-2.3,3.33,3.33,0,0,1,2.52-3.9A3.18,3.18,0,0,1,315.28,216.27Z" style="fill:#263238"></path><path d="M320.38,205.24c-.32.51-3.16-.85-6.67-.17s-5.77,2.94-6.23,2.58c-.22-.15,0-1,1-2a9.19,9.19,0,0,1,4.88-2.59,8.69,8.69,0,0,1,5.41.67C320,204.31,320.54,205,320.38,205.24Z" style="fill:#263238"></path><path d="M316.84,194.33c-.46.92-3,.55-6,1.07s-5.29,1.57-6,.85c-.33-.36-.1-1.24.84-2.2a8.79,8.79,0,0,1,9.65-1.55C316.54,193.13,317,193.89,316.84,194.33Z" style="fill:#263238"></path><path d="M302.52,158.71c7.58-4.75,20.25-5.87,28.21-1.8s13.82,11.61,17,20,3.29,21.57,2.52,30.47C334,192.71,316.87,175.51,301,160.43Z" style="fill:#263238"></path><path d="M294.89,152.1c-45.89,1.69-29.65,68.65-29.65,68.65h0c0-25.74,30.07-58.05,30.07-58.05l6.84-2.45Z" style="fill:#263238"></path><path d="M348.82,220.16c-.43-1.89.72-6.83,2.52-7.55,4.79-1.93,13.84-3.6,16.84,9,4.1,17.23-14.05,17.79-14.19,17.3S350.31,226.67,348.82,220.16Z" style="fill:#ffbe9d"></path><path d="M355.38,231.56c.07-.08.35.13.91.25a3.14,3.14,0,0,0,2.26-.49c1.66-1.1,2.51-4.36,1.85-7.48a10.17,10.17,0,0,0-1.86-4.1,3.58,3.58,0,0,0-2.81-1.77,1.56,1.56,0,0,0-1.57,1.25c-.12.53.07.85,0,.9s-.44-.2-.47-.94a1.93,1.93,0,0,1,.42-1.24,2.33,2.33,0,0,1,1.56-.84,4.36,4.36,0,0,1,3.77,1.93,10.56,10.56,0,0,1,2.18,4.55c.72,3.5-.29,7.17-2.61,8.49a3.28,3.28,0,0,1-2.85.19C355.51,232,355.33,231.6,355.38,231.56Z" style="fill:#eb996e"></path><path d="M361.85,174.86c-6.58-11.14-17.35-19.39-29.13-24.73-6.32-2.86-13.17-5-20.1-4.58s-13.95,3.67-17.55,9.61l-1,1.51c10.75,15.68,18.75,29.15,31.5,43.26,4.69,5.19,9.81,24.78,11.9,31.45,7.16,22.76,21.7,30.45,21.7,30.45C386.72,256.92,368.43,186,361.85,174.86Z" style="fill:#263238"></path><path d="M373.77,276.71c-.09-.06.7-1.31,1.5-3.54a20.66,20.66,0,0,0,1-4,21.23,21.23,0,0,0,0-5,21.87,21.87,0,0,0-3.07-8.61c-1.26-2-2.27-3.09-2.19-3.16a4.56,4.56,0,0,1,.74.73,17.66,17.66,0,0,1,1.76,2.23,19.81,19.81,0,0,1,3.21,13.93,19.16,19.16,0,0,1-1.1,4.08,14.07,14.07,0,0,1-.66,1.48,8.42,8.42,0,0,1-.59,1.07A4,4,0,0,1,373.77,276.71Z" style="fill:#fff"></path><path d="M375.19,239.18a.93.93,0,0,1-.05-.3L375,238c0-.4-.09-.89-.18-1.46l-.34-2a50.33,50.33,0,0,0-4-12.05,68.4,68.4,0,0,0-10.46-15.64,117,117,0,0,0-17.13-15.51c-6.54-5-13-9.38-18.79-13.57A180.38,180.38,0,0,1,309.29,166a93,93,0,0,1-8.92-9.15c-1-1.16-1.69-2.08-2.15-2.72l-.54-.73a1.92,1.92,0,0,1-.17-.26,1.56,1.56,0,0,1,.22.23q.21.27.57.69c.49.63,1.25,1.52,2.23,2.66a98.84,98.84,0,0,0,9,9,188.59,188.59,0,0,0,14.88,11.66c5.78,4.17,12.27,8.56,18.83,13.55a116.07,116.07,0,0,1,17.17,15.6,67.76,67.76,0,0,1,10.43,15.8,49.06,49.06,0,0,1,3.85,12.17c.11.75.21,1.41.29,2s.1,1.07.13,1.46.05.67.07.91A1.13,1.13,0,0,1,375.19,239.18Z" style="fill:#fff"></path><path d="M363.46,183.39A14.59,14.59,0,0,0,362,181a11.92,11.92,0,0,0-2.49-2.22,19.07,19.07,0,0,0-4-2c-3.07-1.21-7-2-11.19-3.25s-8.83-2.75-13.56-4.58a166.87,166.87,0,0,1-23.45-11.21c-2.88-1.68-5.16-3.11-6.71-4.13l-1.78-1.2a3.79,3.79,0,0,1-.6-.45,4.53,4.53,0,0,1,.66.36l1.82,1.12c1.59,1,3.9,2.35,6.79,4a182,182,0,0,0,23.45,11c4.73,1.83,9.31,3.36,13.52,4.61s8.08,2.1,11.19,3.37a19.15,19.15,0,0,1,4,2.1,11.53,11.53,0,0,1,2.48,2.34,7.94,7.94,0,0,1,.68,1,5.14,5.14,0,0,1,.41.81A3.68,3.68,0,0,1,363.46,183.39Z" style="fill:#455a64"></path><path d="M285.05,270.93l-.34-.12-1-.4a36.22,36.22,0,0,1-3.71-1.78,40.92,40.92,0,0,1-5.39-3.62,41.88,41.88,0,0,1-6.2-6,46.83,46.83,0,0,1-9.93-19.91,54.19,54.19,0,0,1,1.18-27.2,61.49,61.49,0,0,1,5.59-13.07,94.1,94.1,0,0,1,7.49-10.91c2.59-3.32,5.17-6.39,7.55-9.28s4.54-5.62,6.43-8.17a67.57,67.57,0,0,0,7.64-12.93c.34-.82.68-1.53.91-2.18s.41-1.18.57-1.63l.36-1a1.85,1.85,0,0,1,.14-.34,1.48,1.48,0,0,1-.09.36l-.31,1c-.14.46-.32,1-.52,1.65s-.54,1.38-.87,2.21A65.08,65.08,0,0,1,287,170.69c-1.88,2.58-4,5.33-6.4,8.23s-4.92,6-7.5,9.3a95.88,95.88,0,0,0-7.43,10.87,61.47,61.47,0,0,0-5.53,13A54,54,0,0,0,259,239a46.65,46.65,0,0,0,9.75,19.78,43.37,43.37,0,0,0,11.4,9.67c1.56.86,2.78,1.5,3.65,1.86l1,.45A1.79,1.79,0,0,1,285.05,270.93Z" style="fill:#455a64"></path><path d="M376.21,234.05a5.91,5.91,0,0,1-.19,1.24c-.14.8-.41,1.94-.77,3.34a50.35,50.35,0,0,1-4,10.58,38.2,38.2,0,0,1-3.35,5.27,34.57,34.57,0,0,1-3.39,3.8,30.77,30.77,0,0,1-2.57,2.27,5.54,5.54,0,0,1-1,.73c-.06-.07,1.34-1.19,3.34-3.26a42.62,42.62,0,0,0,3.27-3.83,42,42,0,0,0,3.27-5.23,57.39,57.39,0,0,0,4.11-10.43c.37-1.31.68-2.41.92-3.29A5.64,5.64,0,0,1,376.21,234.05Z" style="fill:#455a64"></path><path d="M466.85,456.53l-14.28-90.66s-18.28-71.34-33-80.3S366.2,278,366.2,278h0l-3.08,6.51a31,31,0,0,1-51.58,6.95h0l-15.88,3.9a54.19,54.19,0,0,0-32.74,23.14c-.26.4-10.85,14.58-11.1,15-5.53,9.06-58.47,72.18-58.47,72.18s-38.53-18.36-40.18-18.1-16.8,18.88-16.8,18.88h0s47.69,49.59,67.89,47.24S246.66,418,246.66,418l41.18-39.52c5.8,21.84,24.57,78.17,24.57,78.17Z" style="fill:#FF6400"></path><g style="opacity:0.30000000000000004"><path d="M234.57,419.84c-4.19-4.72-10.08-7.52-15.9-9.95-20.66-8.64-42.47-14.12-64.18-19.57a3.41,3.41,0,0,0-2-.09c-1.38.53-1.44,2.44-1.21,3.91l.22,1.46-1,2.11a127.84,127.84,0,0,0,46.94,36.66c5.14,2.35,10.62,4.4,16.26,4.11,6.58-.33,12.54-3.77,18.2-7.13,2.21-1.3,4.63-2.91,5.08-5.43C237.39,423.69,236.08,421.52,234.57,419.84Z"></path></g><path d="M278.69,335.63a3.1,3.1,0,0,1,.12.67c.06.5.15,1.14.25,1.93s.26,1.86.44,3,.4,2.54.67,4c1.06,5.95,3,14.08,5.27,23s4.5,17,5.94,22.88c.72,2.94,1.26,5.32,1.61,7,.16.79.29,1.42.38,1.91a2.63,2.63,0,0,1,.1.67,3.45,3.45,0,0,1-.2-.65c-.12-.48-.28-1.11-.48-1.88-.4-1.65-1-4-1.77-6.94-1.57-5.9-3.72-14-6.08-22.84s-4.16-17.11-5.13-23.09c-.25-1.49-.46-2.84-.6-4s-.3-2.22-.35-3.06-.11-1.45-.15-1.95A3.19,3.19,0,0,1,278.69,335.63Z" style="fill:#263238"></path><path d="M366.64,402a7.52,7.52,0,0,1-1.52-.11q-.74-.06-1.77-.24c-.69-.13-1.48-.24-2.33-.45a46.47,46.47,0,0,1-5.93-1.72,52,52,0,0,1-6.9-3.12,53.38,53.38,0,0,1-6.33-4.15,48.29,48.29,0,0,1-4.63-4.1c-.63-.6-1.15-1.21-1.62-1.72s-.86-1-1.16-1.37a8.08,8.08,0,0,1-.9-1.23,10,10,0,0,1,1.06,1.1c.32.36.72.81,1.21,1.3s1,1.08,1.67,1.66a52,52,0,0,0,4.66,4,51.89,51.89,0,0,0,13.1,7.21,51.19,51.19,0,0,0,5.85,1.81c.84.24,1.62.37,2.3.52s1.27.26,1.75.33A9.44,9.44,0,0,1,366.64,402Z" style="fill:#263238"></path><path d="M366.65,272.63c2.36-2.8,1.29-5.28-.08-6.36-2.26-1.81-5-1.16-7,.47-6.24,5-13.43,9.4-19.81,14.21s-14.84,8.34-22.28,5.41c-1.68-.66-3.25-1.64-5-2.16a5.6,5.6,0,0,0-5.18.66c-1.39,1.16-1.61,5.66-.07,6.61,2.85,7.41,9.7,12.92,17.36,15s16,.94,23.24-2.27,13.51-8.4,18.8-14.31a17.4,17.4,0,0,0,4.21-6.73C371.83,279.59,366.65,272.63,366.65,272.63Z" style="fill:#FF6400"></path><path d="M368.62,270.35a3,3,0,0,1-.42.57c-.3.37-.72.91-1.3,1.59-1.14,1.36-2.86,3.29-5.11,5.55a74.79,74.79,0,0,1-8.46,7.32,55.82,55.82,0,0,1-11.91,6.77c-9.08,3.69-18.25,4.05-24.49,2.75a29.91,29.91,0,0,1-7.18-2.31,18.07,18.07,0,0,1-1.82-1,4.31,4.31,0,0,1-.61-.37c0-.05.89.43,2.51,1.14a32.06,32.06,0,0,0,7.17,2.14c6.18,1.19,15.25.78,24.22-2.87A57.12,57.12,0,0,0,353.05,285a79.05,79.05,0,0,0,8.49-7.2c2.27-2.21,4-4.1,5.21-5.42l1.37-1.51A2.87,2.87,0,0,1,368.62,270.35Z" style="fill:#263238"></path><path d="M366.84,284.19a2.32,2.32,0,0,1-.26.43c-.23.31-.5.7-.83,1.16-.73,1-1.83,2.43-3.25,4.15a110.92,110.92,0,0,1-26,22.86c-1.88,1.18-3.44,2.1-4.53,2.68l-1.26.68c-.3.15-.45.22-.46.2a2.31,2.31,0,0,1,.4-.29l1.22-.76c1.06-.64,2.58-1.6,4.43-2.82a124.66,124.66,0,0,0,25.94-22.79c1.45-1.68,2.59-3.06,3.36-4,.37-.44.67-.81.91-1.11S366.82,284.18,366.84,284.19Z" style="fill:#263238"></path><g style="opacity:0.30000000000000004"><path d="M398.09,350.32c1.51,14.11,2,27.41,3.53,41.51.2,1.94.39,4-.53,5.73-1.35,2.53-4.51,3.35-7.31,3.93-7.56,1.55-15.38,3.89-22.94,5.44,11.62-.23,23.58-1.55,35.2-1.77.9,0,3.52-.16,3.52-.16s-.68-3.67-.87-4.55c-3.86-17.5-6.75-32.63-10.6-50.13"></path></g><g style="opacity:0.30000000000000004"><path d="M288.31,379.84c-9.66-11.82-12.85-28.13-9.62-43.06,2.1,16,6,30.12,9.62,43.06"></path></g><g style="opacity:0.30000000000000004"><path d="M318.72,383.36a23.11,23.11,0,0,0,7.13-22.88c-1.09-4.15-3.34-7.93-4.23-12.13-.94-4.42-.31-9-.1-13.51s-.08-9.31-2.58-13.08c-1.38-2.08-3.41-3.83-4.05-6.24s.17-4.67.33-7a13.67,13.67,0,0,0-5-11.38c-1-.79-2.49-1.43-3.45-.6a3.11,3.11,0,0,0-.77,2.27c-1.21,21-2.34,42.6,4.7,62.39,2.69,7.57,6.57,14.84,7.54,22.81"></path></g><g style="opacity:0.30000000000000004"><path d="M340.72,292.26c-10.13,4.13-22.56,4.7-33.18-.88l1.12,1.59c4.89,4.9,12.22,6.79,19.12,6.29s13.48-3.14,19.66-6.25a49.63,49.63,0,0,0,12.12-8,22.55,22.55,0,0,0,7.09-12.42C359.41,280.83,350.84,288.13,340.72,292.26Z"></path></g><path d="M391.62,279s5.11,19.6,5.47,37.53S409.56,405,409.56,405l-63.69,3.17-4.06,36.48s72.19,15.67,93,14.59S464.17,442,461.66,418c0,0-14.8-89.49-23.1-110.55C431,288.35,417.44,281.1,391.62,279Z" style="fill:#FF6400"></path><path d="M438.56,307.42s.14.34.38,1l1.08,3c.85,2.69,2,6.69,3.33,11.9,2.65,10.41,5.91,25.61,9.53,44.46,1.81,9.43,3.72,19.76,5.69,30.88q1.44,8.34,3,17.23c.12.74.28,1.49.36,2.25s.12,1.51.18,2.28.14,1.53.15,2.3,0,1.54,0,2.32a58.66,58.66,0,0,1-.61,9.4c-.16.78-.31,1.57-.47,2.35L461,438l-.34,1.17c-.24.77-.45,1.55-.7,2.32l-.93,2.27a26.8,26.8,0,0,1-5.52,8.2,25.87,25.87,0,0,1-8.5,5.44,35.87,35.87,0,0,1-10.09,2.06c-6.95.21-14-.63-21-1.52s-14.24-2-21.45-3.26c-17.56-3-34.53-6.38-50.64-9.81l-.22,0,0-.23c1.42-12.69,2.78-24.88,4.08-36.47l0-.2h.2l63.69-3.12-.17.21c-3.74-18.25-6.76-33-8.85-43.14-1-5.07-1.83-9-2.37-11.69-.27-1.32-.47-2.34-.6-3s-.19-1-.19-1,.09.35.24,1,.36,1.7.65,3c.56,2.68,1.39,6.61,2.47,11.67,2.12,10.16,5.19,24.87,9,43.11l0,.21h-.21l-63.68,3.23.22-.21c-1.29,11.6-2.64,23.79-4.05,36.48l-.19-.28c16.1,3.43,33.07,6.8,50.61,9.79,7.22,1.24,14.36,2.35,21.43,3.27S428,459.19,434.85,459a35.36,35.36,0,0,0,9.94-2,25.41,25.41,0,0,0,8.33-5.32,26.71,26.71,0,0,0,5.43-8.05c.3-.74.6-1.49.91-2.23s.46-1.53.69-2.3l.34-1.14.24-1.17c.15-.78.31-1.55.46-2.33a59.91,59.91,0,0,0,.63-9.32c0-.77,0-1.54-.05-2.3s-.1-1.53-.15-2.28l-.17-2.26c-.08-.75-.23-1.49-.35-2.23-1-5.92-2-11.68-3-17.24-1.94-11.11-3.83-21.45-5.62-30.88-3.58-18.86-6.78-34.06-9.36-44.48-1.27-5.21-2.42-9.22-3.24-11.92-.45-1.33-.79-2.35-1-3.05S438.56,307.42,438.56,307.42Z" style="fill:#263238"></path><path d="M429.86,426c-.08,0-.87-1.44-2.36-3.68a54.27,54.27,0,0,0-6.62-8.16,55.33,55.33,0,0,0-8.08-6.73c-2.23-1.51-3.7-2.32-3.65-2.4a5.3,5.3,0,0,1,1.07.49c.68.34,1.63.88,2.78,1.61a47.32,47.32,0,0,1,14.81,15c.71,1.15,1.25,2.12,1.58,2.8A4.2,4.2,0,0,1,429.86,426Z" style="fill:#263238"></path><path d="M409.41,290a12.83,12.83,0,0,1-1.3,1.17,18.66,18.66,0,0,0-1.52,1.38c-.56.56-1.25,1.16-1.9,1.93l-1.05,1.17c-.37.41-.7.87-1.07,1.33-.75.91-1.44,2-2.18,3.07a41.51,41.51,0,0,0-6.07,16c-.17,1.32-.37,2.56-.4,3.74,0,.59-.09,1.16-.09,1.71s0,1.07,0,1.57c0,1,.1,1.91.15,2.71a18,18,0,0,0,.22,2,12.72,12.72,0,0,1,.2,1.75,9.89,9.89,0,0,1-.4-1.71,16.5,16.5,0,0,1-.31-2,25.62,25.62,0,0,1-.22-2.72c0-.51,0-1-.05-1.6s0-1.12.06-1.72c0-1.19.2-2.46.35-3.79a40.24,40.24,0,0,1,6.14-16.2c.77-1.1,1.47-2.17,2.25-3.07.38-.46.73-.93,1.1-1.33l1.09-1.16c.68-.76,1.39-1.35,2-1.9A16.13,16.13,0,0,1,408,291,10.5,10.5,0,0,1,409.41,290Z" style="fill:#263238"></path><path d="M317.09,328.38c-1.06-2.95-3.64-5.28-4.17-8.36-.41-2.4.5-4.81.72-7.23.46-5.11-2.22-12.07-4.05-16.86-1.91-5-5.67-7.41-1.93-11.74l-.34-1.9c-7-1-14.59,5.7-14.52,12.8a15,15,0,0,0-2.28,26.46c-.86,6.6-1.68,13.54.83,19.7s9.6,11,15.81,8.61c4.24-1.62,6.77-5.93,8.53-10.11C317.21,336.14,318.42,332.06,317.09,328.38Z" style="fill:#263238"></path><path d="M306.35,294.88a19.24,19.24,0,0,0-14.6.62,6.25,6.25,0,0,1,1.94-1.11,15.56,15.56,0,0,1,5.28-1.16,15.32,15.32,0,0,1,5.35.71A6.19,6.19,0,0,1,306.35,294.88Z" style="fill:#455a64"></path><path d="M308.33,324.36a2.25,2.25,0,0,1-.62.37,11.39,11.39,0,0,1-1.83.72,16.3,16.3,0,0,1-12.62-1.4,10.21,10.21,0,0,1-1.63-1.1c-.36-.29-.54-.47-.52-.5s.87.55,2.32,1.28a18.08,18.08,0,0,0,12.35,1.37C307.36,324.7,308.29,324.28,308.33,324.36Z" style="fill:#455a64"></path><path d="M311.72,319.92c-.09.05-1-1.58-2.68-4a45.66,45.66,0,0,0-3.29-4,48.11,48.11,0,0,0-4.65-4.32,47,47,0,0,0-5.23-3.58,45.41,45.41,0,0,0-4.64-2.32c-2.72-1.16-4.5-1.64-4.47-1.73a5.54,5.54,0,0,1,1.27.27c.4.1.89.24,1.45.44s1.21.39,1.89.68a37,37,0,0,1,4.73,2.25,42.26,42.26,0,0,1,5.33,3.59,43.35,43.35,0,0,1,4.67,4.39,39.85,39.85,0,0,1,3.24,4.12c.44.61.77,1.19,1.08,1.7s.56.95.75,1.32A6.65,6.65,0,0,1,311.72,319.92Z" style="fill:#455a64"></path><path d="M305.65,290.76c-.13.08-1.17-1.54-2.95-3s-3.55-2.27-3.49-2.42a8.06,8.06,0,0,1,3.82,2A7.94,7.94,0,0,1,305.65,290.76Z" style="fill:#455a64"></path><path d="M312.47,327.73c0,.07-1.26.75-3.24,2a48.9,48.9,0,0,0-7.18,5.7,47.35,47.35,0,0,0-5.91,7c-1.34,1.93-2.05,3.21-2.13,3.16a4.2,4.2,0,0,1,.42-.94c.29-.59.77-1.43,1.4-2.43a40.49,40.49,0,0,1,5.86-7.16,39.78,39.78,0,0,1,7.35-5.64c1-.6,1.87-1.05,2.47-1.33A3.29,3.29,0,0,1,312.47,327.73Z" style="fill:#fff"></path><path d="M294.91,320.7a4.56,4.56,0,0,1,0-1,22.13,22.13,0,0,1,.25-2.77,29.74,29.74,0,0,1,8.07-16.22,21.56,21.56,0,0,1,2.06-1.87,3.84,3.84,0,0,1,.83-.59c.06.07-1,1-2.62,2.71a32.79,32.79,0,0,0-8,16C295.07,319.25,295,320.7,294.91,320.7Z" style="fill:#fff"></path><path d="M308.72,343.71a24.08,24.08,0,0,1-1.16-2.41,25.8,25.8,0,0,0-8.22-9.65c-1.34-1-2.24-1.46-2.2-1.53a9,9,0,0,1,2.4,1.22,22.23,22.23,0,0,1,4.9,4.29,22,22,0,0,1,3.45,5.52A9.34,9.34,0,0,1,308.72,343.71Z" style="fill:#455a64"></path><path d="M317.81,354.14c-1.79-2.84-4.32-5.65-7.66-5.94l-10.62,3.51a14.42,14.42,0,0,0-1.42,14.75,34,34,0,0,0,5,6.77c1.82,2.16,3.57,4.5,4.24,7.24s0,6-2.25,7.66a13.55,13.55,0,0,0,6.56-5.34,9.9,9.9,0,0,1-1.33,6.51c6.56-2.19,11.16-8.63,12.22-15.46S321.51,360,317.81,354.14Z" style="fill:#263238"></path><path d="M316.58,344.5a2.81,2.81,0,0,0-1.89-1.8c-1.34-.29-2.52.83-3.56,1.73a15.84,15.84,0,0,1-13.81,3.32l-.18,0a3.33,3.33,0,0,0-1.56,2.87,4.37,4.37,0,0,0,1.4,2.52,9.41,9.41,0,0,0,6.12,2.47,17,17,0,0,0,6.59-1.19,13,13,0,0,0,5.63-3.59A6.33,6.33,0,0,0,316.58,344.5Z" style="fill:#455a64"></path><path d="M107.92,322.89l6.11,37,53.91,51.89,45.88,23.95,73.3-20.36,1.57-8.51L249,380l-44.75-38.3s-14.65-42.38-19.75-51.62Z" style="fill:#fff"></path><path d="M107.92,322.89s.44-.21,1.33-.6l4-1.72L128.47,314l56-24.09.17-.07.08.15c1.92,3.69,3.51,7.65,5.15,11.72s3.23,8.29,4.84,12.62q4.83,13,9.82,27.3l-.07-.1,44.75,38.29,0,0,39.69,26.82.14.1,0,.17c-.1.51-.2,1.07-.3,1.63-.43,2.3-.86,4.6-1.28,6.87l0,.16-.15.05-73.3,20.35-.09,0-.09,0-45.87-24h0l0,0L113.94,360l0,0v0c-1.93-11.85-3.43-21.11-4.46-27.41-.5-3.13-.89-5.53-1.15-7.15-.12-.8-.22-1.41-.28-1.82s-.09-.61-.09-.61l.12.62c.07.43.18,1,.32,1.84.27,1.63.68,4,1.22,7.17,1,6.28,2.6,15.5,4.59,27.31l0-.08c13.56,13,32,30.71,54,51.83l-.05,0,45.9,23.93-.18,0,73.29-20.38-.19.2c.42-2.28.85-4.57,1.27-6.88.11-.55.21-1.11.31-1.63l.11.26L248.87,380.2h0l-44.73-38.32-.05,0,0-.06q-4.95-14.29-9.78-27.31-2.4-6.49-4.81-12.62c-1.63-4.06-3.22-8-5.11-11.68l.24.08-55.94,23.87-15.33,6.52-4,1.69Z" style="fill:#263238"></path><path d="M204.26,341.69a4.4,4.4,0,0,1-.67.41l-2,1.09c-1.73.94-4.24,2.26-7.37,3.87-6.25,3.22-15,7.52-24.73,11.93s-18.77,8.07-25.35,10.55c-3.28,1.24-5.95,2.22-7.81,2.85l-2.15.73a4.4,4.4,0,0,1-.75.22,6.12,6.12,0,0,1,.72-.32l2.11-.82,7.75-3c6.53-2.57,15.5-6.28,25.27-10.68s18.49-8.66,24.78-11.79l7.43-3.72,2-1A4.11,4.11,0,0,1,204.26,341.69Z" style="fill:#263238"></path><path d="M248.31,379.79c.05.13-17.9,7.39-40.09,16.22S168,411.87,167.94,411.74s17.89-7.39,40.09-16.22S248.26,379.65,248.31,379.79Z" style="fill:#263238"></path><path d="M121,366.17s3.49-1.23,4.21-3.25.58-3.62,0-4.34-10.7-4.92-11.71-5.21-9.69-1-10.12,4.2a9.46,9.46,0,0,0,2,6.36s-3.33,6.36-3.33,7.95,1.59,4.05,1.45,5.35-3,4.48-2,7.09,2.16,3,2.16,4.91-.72,3.33,0,4.48,5.35,7.09,9,7.81,21.11,3.18,21.11,3.18l2.6,1.74s7.67,2.31,11.72-4.48,3.32-6.37,3.32-6.37L138.23,383s1.58-3-.27-4.64a7.88,7.88,0,0,0-3.18-1.3s1.16-4.34-1-5.79S121,366.17,121,366.17Z" style="fill:#ffbe9d"></path><path d="M106.55,387.45a1.53,1.53,0,0,1,.45-.15c.3-.08.75-.2,1.32-.32,1.16-.26,2.84-.58,4.94-.87a73.41,73.41,0,0,1,16.55-.4h.12l.06.09a2.65,2.65,0,0,1,.28.43,3.31,3.31,0,0,1,0,2.77,4.7,4.7,0,0,1-1.72,2,24.28,24.28,0,0,1-4.39,2l-7.29,2.88.1-.16a6.15,6.15,0,0,1-1.8,4.06,5.59,5.59,0,0,1-.93.75c-.24.14-.37.2-.38.18a10.61,10.61,0,0,0,1.18-1.06,6.18,6.18,0,0,0,1.59-3.94v-.11l.11,0,7.25-3a24.54,24.54,0,0,0,4.27-2,4.15,4.15,0,0,0,1.53-1.81,2.79,2.79,0,0,0,0-2.33,3,3,0,0,0-.22-.35l.18.1a80.64,80.64,0,0,0-16.47.24c-2.09.25-3.78.51-4.94.71A12.7,12.7,0,0,1,106.55,387.45Z" style="fill:#eb996e"></path><path d="M134.87,377.05s0,.11-.11.3a2,2,0,0,1-.62.67,3.15,3.15,0,0,1-1.36.54,6.29,6.29,0,0,1-1.91-.08c-2.74-.51-6.49-1.27-10.64-2.13-3.62-.76-6.94-1.47-9.48-2h.12L107,375.82a7.18,7.18,0,0,1-1.45.49,9.24,9.24,0,0,1,1.36-.7l3.76-1.68.05,0h.07c2.56.5,5.88,1.17,9.51,1.93,4.14.86,7.89,1.68,10.6,2.28a4.13,4.13,0,0,0,3.09-.27A3.23,3.23,0,0,0,134.87,377.05Z" style="fill:#eb996e"></path><path d="M138.23,383s0,.12-.09.31a2.92,2.92,0,0,1-.54.75,4.94,4.94,0,0,1-3.09,1.28,91.38,91.38,0,0,1-10.95.1c-2.14-.08-4.18-.27-6-.41a21.33,21.33,0,0,0-4.87.11,6.23,6.23,0,0,0-3.07.92c-.63.43-.91.78-1,.74s0-.1.18-.27a3.92,3.92,0,0,1,.65-.64,4.35,4.35,0,0,1,1.28-.7,10.81,10.81,0,0,1,1.87-.42,20.3,20.3,0,0,1,4.94-.22c1.85.12,3.87.29,6,.37,4.25.19,8.13.18,10.9.06a5,5,0,0,0,3-1.07A4.86,4.86,0,0,0,138.23,383Z" style="fill:#eb996e"></path><path d="M140.48,391.2a47.14,47.14,0,0,0-4.53-1.73c-2.59-.69-4.8-.57-4.8-.73a11.77,11.77,0,0,1,9.33,2.46Z" style="fill:#eb996e"></path><path d="M123,366.89a15.13,15.13,0,0,1-2.49-.57c-1.52-.4-3.63-.91-6-1.38s-4.49-.81-6-1a14.07,14.07,0,0,1-2.51-.44,11,11,0,0,1,2.56.07,54.47,54.47,0,0,1,6.11.89,56.19,56.19,0,0,1,6,1.53A10.6,10.6,0,0,1,123,366.89Z" style="fill:#eb996e"></path><path d="M336.05,412.3s-16.46-13.81-19.61-14.3-8.24-1-9.45,0-31.26,9-31.26,9a8.14,8.14,0,0,0-3.55,4.25,2.94,2.94,0,0,0,1.78,3.65,10.24,10.24,0,0,0,6.13.34,5.14,5.14,0,0,0,.73,5.09c1.93,2.42,7.94,1,7.94,1s-2.37,6.06,3.45,7.75c0,0-2.19,1.7,0,4.37s4.42,5.38,8.72,5.09,12.6,0,12.6,0H329a22.74,22.74,0,0,1,4.12-1.48c1.45-.24,9,1.42,9,1.42L345.06,413Z" style="fill:#ffbe9d"></path><path d="M310.49,408.45a6.55,6.55,0,0,1-1.2.3l-3.29.68c-2.77.58-6.58,1.48-10.78,2.53s-8,2-10.78,2.57c-1.39.29-2.52.51-3.3.64a5.76,5.76,0,0,1-1.23.16,5.75,5.75,0,0,1,1.19-.36l3.26-.8,10.74-2.72c4.2-1.05,8-1.89,10.83-2.38,1.4-.25,2.53-.43,3.32-.52A5.22,5.22,0,0,1,310.49,408.45Z" style="fill:#eb996e"></path><path d="M310.16,418a19.22,19.22,0,0,1-3.16.45c-1.95.22-4.65.51-7.62.93s-5.63.91-7.56,1.31a24.28,24.28,0,0,1-3.13.59,16.41,16.41,0,0,1,3.05-.95,72.32,72.32,0,0,1,7.57-1.46c3-.42,5.69-.66,7.66-.79A17.75,17.75,0,0,1,310.16,418Z" style="fill:#eb996e"></path><path d="M310.49,428.46a13.65,13.65,0,0,1-2.62.75,46.47,46.47,0,0,1-6.47,1.12,20.26,20.26,0,0,1-6.58-.53,9.62,9.62,0,0,1-2.58-.86,26,26,0,0,1,2.66.5,23.07,23.07,0,0,0,6.45.37c2.53-.23,4.8-.66,6.45-1A14.61,14.61,0,0,1,310.49,428.46Z" style="fill:#eb996e"></path></g><g id="freepik--Desk--inject-15"><rect x="16.94" y="456.95" width="465.85" height="19.74" style="fill:#455a64"></rect><path d="M16.94,457l2.36,0,7,0,26.94-.06,99.41-.13,330.16-.17h.34V477.1h-.34l-465.86-.31h-.08v-.1c0-6.78,0-11.72.05-15s0-4.76,0-4.76c0,.7,0,6.32.09,19.74l-.09-.1,465.86-.32-.35.42V457l.35.41-329.9-.17-99.49-.12-27-.06-7,0Z" style="fill:#263238"></path><path d="M115.63,457.24s0,.08-.15.21-.26.34-.49.6a9.62,9.62,0,0,1-2.34,1.81,13.5,13.5,0,0,1-4.5,1.47,32.86,32.86,0,0,1-6.28.26,62.41,62.41,0,0,1-7.55-.84,68.09,68.09,0,0,0-8.61-1c-6.1-.21-12.74,1.33-19.37,3.64s-12.85,4.92-18.79,6.51A53.6,53.6,0,0,1,39,471.56a37.08,37.08,0,0,1-7.61,0,26.59,26.59,0,0,1-10.45-3.23A16.72,16.72,0,0,1,17.68,466a1.22,1.22,0,0,1,.22.14l.63.45A20.59,20.59,0,0,0,21,468.12a26.94,26.94,0,0,0,10.38,3,37.19,37.19,0,0,0,7.52,0,53.79,53.79,0,0,0,8.48-1.68c5.89-1.61,12.07-4.23,18.75-6.55s13.38-3.87,19.58-3.62a67.3,67.3,0,0,1,8.66,1.05,65.27,65.27,0,0,0,7.5.9,33.43,33.43,0,0,0,6.21-.18,13.47,13.47,0,0,0,4.44-1.35A12,12,0,0,0,115.63,457.24Z" style="fill:#263238"></path><path d="M64.67,457.54a12.66,12.66,0,0,1-1.41,1.17A33.78,33.78,0,0,1,59,461.36a37,37,0,0,1-16,4.11,35.7,35.7,0,0,1-16.24-3.24,10.19,10.19,0,0,1-3.92-3.11,4.92,4.92,0,0,1-.64-1.19q-.15-.44-.12-.45A12.25,12.25,0,0,0,23,459a10.76,10.76,0,0,0,3.92,2.88,37.06,37.06,0,0,0,16,3A38.78,38.78,0,0,0,58.82,461a41,41,0,0,0,4.31-2.48A12,12,0,0,1,64.67,457.54Z" style="fill:#263238"></path><path d="M174,470.05s.25.08.72.25a14.44,14.44,0,0,0,2.15.56,13.07,13.07,0,0,0,8.16-1.24l0,.25a19.73,19.73,0,0,0-10.11-3.81,20.12,20.12,0,0,0-13.15,3.31,2,2,0,0,0-1,1.28,1.36,1.36,0,0,0,.87,1.27,6.18,6.18,0,0,0,1.8.62l2,.43c2.66.58,5.42,1.15,8.27,1.55a50,50,0,0,0,8.79.58,33,33,0,0,0,4.52-.42c.75-.12,1.5-.26,2.25-.45a11.66,11.66,0,0,0,2.17-.69,7.15,7.15,0,0,0,2.82-2,3,3,0,0,0,.54-3,5.2,5.2,0,0,0-2.21-2.39,18.23,18.23,0,0,0-3.09-1.47,43.85,43.85,0,0,0-12.94-2.6,55.59,55.59,0,0,0-35.38,10.36c-1.43,1.06-2.52,1.9-3.22,2.52l-.82.68-.29.22s.08-.1.25-.26l.78-.72c.68-.65,1.75-1.52,3.16-2.61A53.59,53.59,0,0,1,154.26,465a55.19,55.19,0,0,1,22.26-3.46,43.55,43.55,0,0,1,13.11,2.61,17.91,17.91,0,0,1,3.2,1.51,5.73,5.73,0,0,1,2.44,2.66,3.59,3.59,0,0,1-.62,3.57,7.8,7.8,0,0,1-3.05,2.14,11,11,0,0,1-2.26.71c-.76.2-1.53.34-2.3.47a34,34,0,0,1-4.59.42,49.87,49.87,0,0,1-8.89-.6c-2.88-.41-5.64-1-8.31-1.58l-2-.44a6.72,6.72,0,0,1-2-.68,2.53,2.53,0,0,1-.81-.69,1.44,1.44,0,0,1-.3-1.06,2.5,2.5,0,0,1,1.23-1.63,20.58,20.58,0,0,1,13.48-3.32,20,20,0,0,1,10.27,4l.18.14-.21.11a13,13,0,0,1-8.33,1.12A9.6,9.6,0,0,1,174,470.05Z" style="fill:#263238"></path><path d="M233.93,457.75a2.93,2.93,0,0,1,.46,1,7.3,7.3,0,0,1,.3,3c-.15,2.54-1.76,5.88-4.53,8.62a23.14,23.14,0,0,1-4.24,3.49,19.65,19.65,0,0,1-4.09,1.92,20.43,20.43,0,0,1-3,.72,3.88,3.88,0,0,1-1.11.09c0-.1,1.56-.32,3.94-1.18a21.33,21.33,0,0,0,3.94-2,24.13,24.13,0,0,0,4.11-3.45c2.71-2.67,4.3-5.84,4.55-8.27A10.58,10.58,0,0,0,233.93,457.75Z" style="fill:#263238"></path><path d="M317.58,475.65a25.52,25.52,0,0,0-2.14-2,15.48,15.48,0,0,0-7.28-3.18,16.63,16.63,0,0,0-5.55.16,25,25,0,0,1-6.5.58c-2.39-.22-4.53-1.62-6.47-3.08a22.3,22.3,0,0,0-6.51-3.74,24.56,24.56,0,0,0-14.44-.21A34.72,34.72,0,0,0,258,469.4a57,57,0,0,0-6.19,5.13L250.22,476a3.6,3.6,0,0,1-.57.51,4.77,4.77,0,0,1,.49-.59c.33-.37.84-.91,1.51-1.59a50.74,50.74,0,0,1,6.11-5.28,34.48,34.48,0,0,1,10.78-5.43,25,25,0,0,1,14.79.19,22.43,22.43,0,0,1,6.65,3.83c1.93,1.47,3.95,2.79,6.19,3a25.06,25.06,0,0,0,6.37-.53,17,17,0,0,1,5.68-.09,15.25,15.25,0,0,1,7.37,3.41A9.5,9.5,0,0,1,317.58,475.65Z" style="fill:#263238"></path><path d="M392.27,457.14a4.46,4.46,0,0,1-.51.67,24.26,24.26,0,0,1-1.59,1.84,43.24,43.24,0,0,1-6.8,5.85,54.87,54.87,0,0,1-11.8,6.34,49.44,49.44,0,0,1-7.61,2.35,39.8,39.8,0,0,1-8.51,1.06A43.15,43.15,0,0,1,339.3,472a54.48,54.48,0,0,1-11.74-6.45,45.82,45.82,0,0,1-6.75-5.91c-.75-.75-1.23-1.41-1.59-1.83a6.8,6.8,0,0,1-.52-.67,3.45,3.45,0,0,1,.61.6c.39.39.9,1,1.67,1.75a48.05,48.05,0,0,0,6.83,5.74,55,55,0,0,0,11.69,6.29,43.31,43.31,0,0,0,15.94,3.18,40.9,40.9,0,0,0,8.4-1,49.2,49.2,0,0,0,7.54-2.3,56.71,56.71,0,0,0,11.76-6.18A47.16,47.16,0,0,0,390,459.5c.77-.72,1.27-1.37,1.66-1.76A4.26,4.26,0,0,1,392.27,457.14Z" style="fill:#263238"></path><path d="M381.6,457a1.88,1.88,0,0,1-.39.31c-.28.18-.67.47-1.21.79a52.87,52.87,0,0,1-12,5.47,33.39,33.39,0,0,1-9.62,1.59,40.64,40.64,0,0,1-17.08-4.18,38.88,38.88,0,0,1-4.62-2.63c-.53-.34-.91-.64-1.18-.84a2.18,2.18,0,0,1-.38-.32,15.37,15.37,0,0,1,1.68,1,50.47,50.47,0,0,0,4.68,2.46,42.26,42.26,0,0,0,16.9,4A34.06,34.06,0,0,0,367.8,463a55.58,55.58,0,0,0,7.36-2.77c2-.94,3.63-1.78,4.72-2.39A15.25,15.25,0,0,1,381.6,457Z" style="fill:#263238"></path><path d="M429,459a1.87,1.87,0,0,1-.54,0l-1.53-.09-1.09-.08h-1.32c-.94,0-2,0-3.19,0l-1.85.1-2,.22c-1.39.12-2.84.44-4.38.69a67.21,67.21,0,0,0-9.74,2.81A69.36,69.36,0,0,0,394.2,467c-1.31.82-2.6,1.55-3.7,2.36l-1.64,1.14-1.44,1.14c-.94.7-1.72,1.41-2.42,2l-1,.85c-.27.28-.53.53-.77.77l-1.07,1.05a2.88,2.88,0,0,1-.41.34,2.28,2.28,0,0,1,.32-.42l1-1.12.74-.81.94-.89c.68-.64,1.45-1.38,2.38-2.11l1.43-1.16,1.63-1.18c1.1-.84,2.39-1.59,3.71-2.43a59.49,59.49,0,0,1,19-7.23c1.56-.23,3-.54,4.43-.63l2-.2,1.88-.06a30.5,30.5,0,0,1,3.21,0l1.32,0,1.1.13,1.52.2A1.81,1.81,0,0,1,429,459Z" style="fill:#263238"></path><path d="M326,475.26a20.08,20.08,0,0,0-2.56-3,23.87,23.87,0,0,0-9.39-5.08,52.62,52.62,0,0,0-7.32-1.57c-2.68-.41-5.56-.73-8.57-1.24a74.23,74.23,0,0,1-9.3-2.26,62.93,62.93,0,0,0-9.92-2.32,42.6,42.6,0,0,0-19.34,2.59,71.91,71.91,0,0,0-7.86,3.42c-2.41,1.2-4.62,2.38-6.62,3.47-4,2.2-7.2,4.08-9.4,5.38l-2.54,1.5-.66.38q-.22.14-.24.12l.21-.16.63-.43c.56-.38,1.39-.92,2.48-1.6,2.16-1.36,5.32-3.28,9.32-5.53,2-1.12,4.19-2.32,6.6-3.54a70.93,70.93,0,0,1,7.9-3.49A42.7,42.7,0,0,1,279,459.28a62,62,0,0,1,10,2.35,74.29,74.29,0,0,0,9.23,2.28c3,.51,5.87.85,8.55,1.29a52.11,52.11,0,0,1,7.38,1.64,23.49,23.49,0,0,1,9.41,5.31A11.58,11.58,0,0,1,326,475.26Z" style="fill:#263238"></path><path d="M221,457.24a4,4,0,0,1-.06,1.26,14.1,14.1,0,0,1-.92,3.33,19.18,19.18,0,0,1-7.16,8.88,48.93,48.93,0,0,1-10.61,4.74c-1.42.45-2.58.78-3.39,1a5.68,5.68,0,0,1-1.27.26,5.5,5.5,0,0,1,1.21-.46l3.32-1.16a55.72,55.72,0,0,0,10.43-4.82,19.92,19.92,0,0,0,7.1-8.56A24.78,24.78,0,0,0,221,457.24Z" style="fill:#263238"></path><path d="M112.88,476.69a8.28,8.28,0,0,1,1.13-1.06c.75-.66,1.88-1.56,3.32-2.63a97.11,97.11,0,0,1,11.88-7.42c4.84-2.57,9.36-4.64,12.64-6.1,1.65-.73,3-1.3,3.91-1.69a8.53,8.53,0,0,1,1.47-.55,8.14,8.14,0,0,1-1.37.75L142,459.84c-3.24,1.55-7.72,3.66-12.54,6.23a117.21,117.21,0,0,0-11.92,7.25c-1.46,1-2.63,1.87-3.42,2.48A8.36,8.36,0,0,1,112.88,476.69Z" style="fill:#263238"></path><path d="M134.82,458.05c0,.06-1.07-.13-3,0a21.73,21.73,0,0,0-7.77,2.29c-3.12,1.47-6.4,3.91-10.1,6.56a50.47,50.47,0,0,1-6.08,3.82,34.61,34.61,0,0,1-7.27,2.71,69.11,69.11,0,0,1-14.88,1.73c-4.61.14-8.74.05-12.21.18a61.67,61.67,0,0,0-8.17.78c-1,.17-1.69.31-2.19.42a3.9,3.9,0,0,1-.77.14,4.18,4.18,0,0,1,.74-.24c.49-.15,1.23-.33,2.18-.53a54.13,54.13,0,0,1,8.19-1c3.48-.19,7.63-.14,12.21-.3a71.05,71.05,0,0,0,14.76-1.76,34,34,0,0,0,7.15-2.65,54.23,54.23,0,0,0,6-3.75c3.7-2.62,7-5.06,10.23-6.51a21,21,0,0,1,7.93-2.15,14.41,14.41,0,0,1,2.25.07A3.51,3.51,0,0,1,134.82,458.05Z" style="fill:#263238"></path><path d="M439.91,476.69a8.91,8.91,0,0,1,1.14-1.06c.75-.66,1.88-1.56,3.31-2.63a98.69,98.69,0,0,1,11.88-7.42c4.85-2.57,9.37-4.64,12.65-6.1,1.64-.73,3-1.3,3.91-1.69a9.05,9.05,0,0,1,1.46-.55,7.62,7.62,0,0,1-1.37.75l-3.82,1.85c-3.24,1.55-7.73,3.66-12.55,6.23a116.92,116.92,0,0,0-11.91,7.25c-1.46,1-2.63,1.87-3.42,2.48A8.08,8.08,0,0,1,439.91,476.69Z" style="fill:#263238"></path><path d="M461.86,458.05c0,.06-1.08-.13-3,0a21.77,21.77,0,0,0-7.78,2.29c-3.11,1.47-6.4,3.91-10.09,6.56a50.47,50.47,0,0,1-6.08,3.82,34.61,34.61,0,0,1-7.27,2.71,69.18,69.18,0,0,1-14.88,1.73c-4.61.14-8.75.05-12.22.18a61.67,61.67,0,0,0-8.16.78c-.95.17-1.69.31-2.19.42a4,4,0,0,1-.77.14,3.81,3.81,0,0,1,.74-.24c.49-.15,1.22-.33,2.18-.53a54,54,0,0,1,8.19-1c3.48-.19,7.62-.14,12.21-.3a70.88,70.88,0,0,0,14.75-1.76,33.59,33.59,0,0,0,7.15-2.65,53.47,53.47,0,0,0,6-3.75c3.69-2.62,7-5.06,10.22-6.51a21.13,21.13,0,0,1,7.94-2.15,14.41,14.41,0,0,1,2.25.07A3.71,3.71,0,0,1,461.86,458.05Z" style="fill:#263238"></path><path d="M425.37,456.87c0,.15-19.47.28-43.48.28s-43.49-.13-43.49-.28,19.47-.28,43.49-.28S425.37,456.72,425.37,456.87Z" style="fill:#263238"></path></g><g id="freepik--speech-bubble--inject-15"><circle cx="189.62" cy="148.06" r="45.19" transform="translate(-21.91 33.46) rotate(-9.54)" style="fill:#fff"></circle><path d="M234.87,184.3a11.53,11.53,0,0,0-1.33.3,6.06,6.06,0,0,0-2.9,2.14,5.64,5.64,0,0,0-1,2.26,4.88,4.88,0,0,0,.28,2.8,5.41,5.41,0,0,0,10.15.16,5,5,0,0,0,.38-2.79,5.69,5.69,0,0,0-.95-2.29,6,6,0,0,0-2.83-2.23c-.82-.29-1.32-.3-1.31-.35a1.63,1.63,0,0,1,.36,0,2,2,0,0,1,.43.06,2.36,2.36,0,0,1,.57.14,6,6,0,0,1,4.07,4.62,5.27,5.27,0,0,1-.36,3,6.12,6.12,0,0,1-2.09,2.59,5.45,5.45,0,0,1-6.77-.1,6.12,6.12,0,0,1-2-2.67,5.25,5.25,0,0,1-.27-3,5.87,5.87,0,0,1,1.12-2.37,6,6,0,0,1,3.1-2.11,3.88,3.88,0,0,1,.58-.13,2.45,2.45,0,0,1,.43,0C234.74,184.28,234.87,184.28,234.87,184.3Z" style="fill:#263238"></path><path d="M234.68,155s0-.25,0-.73.12-1.22.21-2.16q.06-.71.15-1.59c0-.58,0-1.23,0-1.92s0-1.44,0-2.25a8.62,8.62,0,0,0-.07-1.23c0-.42-.09-.86-.14-1.31a43.41,43.41,0,0,0-3.13-12.72,45,45,0,0,0-9.44-14.48q-.84-.87-1.71-1.74c-.61-.56-1.27-1.08-1.91-1.62l-1-.82a8.6,8.6,0,0,0-1-.78l-2.15-1.48-1.1-.74-1.17-.65-2.38-1.31c-.82-.41-1.69-.73-2.54-1.11-.42-.19-.85-.37-1.29-.55-.21-.09-.43-.19-.65-.27l-.67-.22a43.91,43.91,0,0,0-5.57-1.53c-1-.18-1.92-.42-2.9-.56l-3-.3c-.5-.05-1-.13-1.51-.14h-1.53c-1,0-2.06,0-3.09,0a46.21,46.21,0,0,0-6.24.83l-1.57.31c-.27.06-.53.1-.79.17l-.77.23-3.11,1c-1,.37-2,.83-3.05,1.24-.5.22-1,.4-1.52.66l-1.47.78a51.26,51.26,0,0,0-5.74,3.54l-2.67,2.15-.67.55c-.21.19-.41.4-.62.6L157.71,116l-1.25,1.22-1.12,1.34-1.13,1.34-.57.67-.5.73-2,2.92-1.73,3.13A44.89,44.89,0,0,0,145,155.65c.24,1.18.47,2.34.71,3.51s.69,2.26,1,3.39l.26.84.34.82.67,1.62.68,1.61.82,1.54.81,1.53.41.76.48.72,1.89,2.86a50.28,50.28,0,0,0,4.41,5.1l1.17,1.19c.38.4.84.73,1.25,1.09.85.7,1.67,1.44,2.53,2.1l2.68,1.84.67.45.7.4,1.4.77a46.67,46.67,0,0,0,5.7,2.67c1,.37,2,.64,2.94,1l1.46.46c.49.14,1,.21,1.48.32l2.95.61c1,.17,2,.23,2.94.34a43,43,0,0,0,5.76.22h.71c.24,0,.47,0,.7-.06l1.4-.14c.92-.11,1.85-.15,2.75-.3l2.66-.53,1.32-.27,1.27-.37,2.5-.76a8.67,8.67,0,0,0,1.2-.45l1.18-.48c.77-.33,1.55-.63,2.3-1l2.16-1.15a45.25,45.25,0,0,0,13.36-11c.41-.49.83-1,1.21-1.45l1-1.5,1-1.44c.16-.24.34-.46.48-.7s.27-.49.4-.73l1.53-2.76c.46-.88.79-1.78,1.17-2.6l.52-1.21a7.85,7.85,0,0,0,.44-1.16l.68-2.14c.2-.66.42-1.26.57-1.83s.23-1.1.33-1.56c.2-.92.35-1.63.46-2.12l.17-.72s0,.25-.13.73-.23,1.2-.41,2.13c-.1.47-.2,1-.32,1.56s-.35,1.18-.55,1.85-.43,1.38-.66,2.15a8,8,0,0,1-.44,1.17c-.16.39-.34.79-.51,1.21-.37.83-.7,1.73-1.16,2.63s-1,1.8-1.51,2.77l-.41.73c-.14.25-.31.48-.47.72l-1,1.45-1,1.51c-.39.49-.81,1-1.22,1.46a45.23,45.23,0,0,1-13.39,11.08l-2.18,1.16c-.75.35-1.53.65-2.32,1l-1.18.49a8.34,8.34,0,0,1-1.21.45l-2.52.77-1.27.38-1.33.27-2.68.54c-.91.16-1.84.2-2.77.31l-1.4.14c-.24,0-.47.06-.71.07h-.72a42.14,42.14,0,0,1-5.81-.21c-1-.11-2-.17-3-.33l-3-.61c-.49-.11-1-.19-1.49-.33l-1.47-.46c-1-.32-2-.6-3-1a47.6,47.6,0,0,1-5.76-2.69l-1.41-.78c-.24-.13-.48-.25-.71-.39l-.67-.46-2.71-1.86c-.87-.66-1.69-1.4-2.55-2.11-.42-.37-.88-.69-1.27-1.1l-1.17-1.2a50.12,50.12,0,0,1-4.46-5.14l-1.91-2.88-.48-.73-.42-.76-.82-1.55-.83-1.55-.68-1.63-.68-1.63-.34-.82-.26-.85-1-3.43c-.23-1.17-.47-2.35-.71-3.54A45.33,45.33,0,0,1,149,127.2l1.74-3.16,2-3c.17-.24.33-.49.51-.73l.57-.68,1.14-1.35,1.14-1.35,1.25-1.23,1.25-1.22c.21-.21.42-.42.63-.61l.68-.55,2.68-2.17a50.72,50.72,0,0,1,5.8-3.56l1.49-.79c.49-.27,1-.44,1.53-.67,1-.41,2-.87,3.08-1.24l3.13-1,.78-.23c.27-.07.53-.11.8-.17l1.58-.31a47.08,47.08,0,0,1,6.3-.83c1-.06,2.08,0,3.11,0h1.55c.51,0,1,.09,1.52.14l3,.31c1,.14,2,.39,2.93.57a44,44,0,0,1,5.6,1.55l.68.22c.23.08.44.18.66.27l1.3.56c.85.38,1.73.71,2.55,1.13l2.39,1.32,1.18.66c.38.24.74.5,1.1.75l2.17,1.49a7.92,7.92,0,0,1,1,.79l1,.83c.65.55,1.3,1.07,1.92,1.63l1.72,1.76A45.17,45.17,0,0,1,232,131a43.24,43.24,0,0,1,3.08,12.78c0,.46.08.89.12,1.32a8.76,8.76,0,0,1,.07,1.24c0,.8,0,1.55,0,2.25s0,1.34,0,1.93-.12,1.11-.17,1.59c-.11.94-.19,1.66-.24,2.15S234.68,155,234.68,155Z" style="fill:#263238"></path><path d="M177.84,148.86a4.43,4.43,0,1,1-4.43-4.42A4.43,4.43,0,0,1,177.84,148.86Z" style="fill:#263238"></path><path d="M193.13,148.86a4.43,4.43,0,1,1-4.43-4.42A4.43,4.43,0,0,1,193.13,148.86Z" style="fill:#263238"></path><path d="M208.42,148.86a4.43,4.43,0,1,1-4.42-4.42A4.42,4.42,0,0,1,208.42,148.86Z" style="fill:#263238"></path></g></svg>